<svg width="19" height="19" viewBox="0 0 19 19" fill="none" xmlns="http://www.w3.org/2000/svg">
<path fill-rule="evenodd" clip-rule="evenodd" d="M8.54025 0.25V2.16313H9.81567V0.25H8.54025ZM12.1193 12.5359C13.0527 11.7178 13.6419 10.5167 13.6419 9.17796C13.6419 6.71257 11.6434 4.71398 9.17796 4.71398C6.71257 4.71398 4.71398 6.71257 4.71398 9.17796C4.71398 9.2684 4.71667 9.3582 4.72197 9.4473C4.2853 9.60077 3.87762 9.81581 3.50935 10.082C3.46276 9.78751 3.43856 9.48556 3.43856 9.17796C3.43856 6.00818 6.00818 3.43856 9.17796 3.43856C12.3477 3.43856 14.9174 6.00818 14.9174 9.17796C14.9174 10.7522 14.2836 12.1784 13.2573 13.2153C12.9332 12.9151 12.5467 12.6814 12.1193 12.5359ZM16.1928 8.54025H18.1059V9.81567H16.1928V8.54025ZM16.5909 4.16171L14.9341 5.11827L15.5718 6.22282L17.2286 5.26626L16.5909 4.16171ZM12.1331 2.78414L13.0897 1.12732L14.1943 1.76503L13.2377 3.42186L12.1331 2.78414ZM4.16171 1.76503L5.11827 3.42186L6.22282 2.78414L5.26626 1.12732L4.16171 1.76503ZM2.78411 6.22282L1.12728 5.26626L1.76499 4.16171L3.42182 5.11827L2.78411 6.22282ZM2.16313 8.54025H0.25V9.81567H2.16313V8.54025ZM16.591 14.1942L14.9341 13.2377L15.5719 12.1331L17.2287 13.0897L16.591 14.1942Z" fill="url(#paint0_linear_1045_1589)"/>
<path fill-rule="evenodd" clip-rule="evenodd" d="M6.30823 16.8303C6.32597 16.8303 6.34368 16.8302 6.36135 16.8299H11.0485C11.0566 16.8301 11.0648 16.8302 11.073 16.8303H11.0911V16.8304C11.0911 16.8304 11.0911 16.8304 11.0911 16.8304C12.1477 16.8304 13.0042 15.9738 13.0042 14.9172C13.0042 13.8606 12.1477 13.0041 11.0911 13.0041C10.6004 13.0041 10.1529 13.1888 9.81429 13.4925C9.81696 13.4363 9.81831 13.3798 9.81831 13.323C9.81831 12.8924 9.7407 12.4799 9.59871 12.0988C10.044 11.8625 10.5519 11.7287 11.0911 11.7287C12.8521 11.7287 14.2796 13.1562 14.2796 14.9172C14.2796 16.6782 12.8521 18.1058 11.0911 18.1058C11.0833 18.1058 11.0755 18.1058 11.0677 18.1057L6.33294 18.1057V18.1057C6.32471 18.1057 6.31647 18.1057 6.30823 18.1057C3.66674 18.1057 1.52539 15.9644 1.52539 13.3229C1.52539 10.6814 3.66674 8.54004 6.30823 8.54004C8.39488 8.54004 10.1694 9.87629 10.8229 11.7398C10.3826 11.7764 9.96775 11.9025 9.59653 12.0999C9.10016 10.7658 7.81518 9.81546 6.30823 9.81546C4.37114 9.81546 2.80081 11.3858 2.80081 13.3229C2.80081 15.26 4.37114 16.8303 6.30823 16.8303Z" fill="url(#paint1_linear_1045_1589)"/>
<defs>
<linearGradient id="paint0_linear_1045_1589" x1="9.17796" y1="0.25" x2="9.17796" y2="14.1942" gradientUnits="userSpaceOnUse">
<stop stop-color="#EFC977"/>
<stop offset="1" stop-color="#E07256"/>
</linearGradient>
<linearGradient id="paint1_linear_1045_1589" x1="7.90251" y1="8.54004" x2="7.90251" y2="18.1058" gradientUnits="userSpaceOnUse">
<stop stop-color="#B2D4F7"/>
<stop offset="1" stop-color="#D9E2F3"/>
</linearGradient>
</defs>
</svg>
