<svg width="24" height="25" viewBox="0 0 24 25" fill="none" xmlns="http://www.w3.org/2000/svg">
<path d="M3.51819 10.8058C3.13013 9.73176 2.9361 9.19476 3.01884 8.85065C3.10933 8.47427 3.377 8.18084 3.71913 8.08296C4.03193 7.99346 4.51853 8.20973 5.49173 8.64227C6.35253 9.02486 6.78293 9.21615 7.18732 9.20551C7.63257 9.19379 8.06088 9.01524 8.4016 8.69931C8.71105 8.41237 8.91861 7.95513 9.33373 7.04064L10.2486 5.02525C11.0128 3.34175 11.3949 2.5 12 2.5C12.6051 2.5 12.9872 3.34175 13.7514 5.02525L14.6663 7.04064C15.0814 7.95513 15.289 8.41237 15.5984 8.69931C15.9391 9.01524 16.3674 9.19379 16.8127 9.20551C17.2171 9.21615 17.6475 9.02486 18.5083 8.64227C19.4815 8.20973 19.9681 7.99346 20.2809 8.08296C20.623 8.18084 20.8907 8.47427 20.9812 8.85065C21.0639 9.19476 20.8699 9.73176 20.4818 10.8057L18.8138 15.4222C18.1002 17.397 17.7435 18.3844 16.9968 18.9422C16.2502 19.5 15.2854 19.5 13.3558 19.5H10.6442C8.71459 19.5 7.74977 19.5 7.00315 18.9422C6.25654 18.3844 5.89977 17.397 5.18622 15.4222L3.51819 10.8058Z" stroke="#009AD6" stroke-width="1.5"/>
<path d="M12 14.5H12.009" stroke="#009AD6" stroke-width="2" stroke-linecap="round" stroke-linejoin="round"/>
<path d="M7 22.5H17" stroke="#009AD6" stroke-width="1.5" stroke-linecap="round"/>
</svg>
