<svg width="20" height="21" viewBox="0 0 20 21" fill="none" xmlns="http://www.w3.org/2000/svg">
<path d="M14.1666 9.50375C14.1666 9.21567 14.1666 9.07167 14.21 8.94333C14.336 8.57037 14.6681 8.42563 15.0009 8.27407C15.375 8.10368 15.562 8.01849 15.7473 8.0035C15.9577 7.98648 16.1685 8.03182 16.3483 8.13274C16.5867 8.26653 16.753 8.52078 16.9232 8.72752C17.7094 9.68233 18.1024 10.1598 18.2462 10.6863C18.3623 11.1112 18.3623 11.5555 18.2462 11.9803C18.0365 12.7482 17.3737 13.392 16.8831 13.9878C16.6322 14.2926 16.5067 14.445 16.3483 14.5339C16.1685 14.6348 15.9577 14.6802 15.7473 14.6632C15.562 14.6482 15.375 14.563 15.0009 14.3926C14.6681 14.241 14.336 14.0963 14.21 13.7233C14.1666 13.595 14.1666 13.451 14.1666 13.1629V9.50375Z" stroke="white" stroke-width="1.25"/>
<path d="M5.83329 9.50384C5.83329 9.14117 5.82311 8.81518 5.52988 8.56017C5.42323 8.46742 5.28183 8.40301 4.99905 8.27421C4.62497 8.10382 4.43793 8.01863 4.25259 8.00364C3.69655 7.95867 3.39739 8.33818 3.07673 8.72765C2.29058 9.6825 1.89751 10.1599 1.75368 10.6864C1.63761 11.1113 1.63761 11.5557 1.75368 11.9805C1.96346 12.7484 2.62623 13.3921 3.1168 13.988C3.42603 14.3636 3.72143 14.7063 4.25259 14.6633C4.43793 14.6483 4.62497 14.5631 4.99905 14.3928C5.28183 14.2639 5.42323 14.1995 5.52988 14.1068C5.82311 13.8518 5.83329 13.5258 5.83329 13.1631V9.50384Z" stroke="white" stroke-width="1.25"/>
<path d="M4.16663 8C4.16663 5.23857 6.7783 3 9.99996 3C13.2216 3 15.8333 5.23857 15.8333 8" stroke="white" stroke-width="1.25" stroke-linecap="square" stroke-linejoin="round"/>
<path d="M15.8334 14.667V15.3337C15.8334 16.8064 14.341 18.0003 12.5 18.0003H10.8334" stroke="white" stroke-width="1.25" stroke-linecap="round" stroke-linejoin="round"/>
</svg>
