<svg width="21" height="21" viewBox="0 0 21 21" fill="none" xmlns="http://www.w3.org/2000/svg">
<path d="M2.1665 5.49984C2.1665 3.92849 2.1665 3.14281 2.65466 2.65466C3.14281 2.1665 3.92849 2.1665 5.49984 2.1665C7.07119 2.1665 7.85686 2.1665 8.34501 2.65466C8.83317 3.14281 8.83317 3.92849 8.83317 5.49984V7.1665C8.83317 8.73785 8.83317 9.5235 8.34501 10.0117C7.85686 10.4998 7.07119 10.4998 5.49984 10.4998C3.92849 10.4998 3.14281 10.4998 2.65466 10.0117C2.1665 9.5235 2.1665 8.73785 2.1665 7.1665V5.49984Z" stroke="#009AD6" stroke-width="1.5"/>
<path d="M2.1665 16.3335C2.1665 15.5569 2.1665 15.1687 2.29337 14.8623C2.46253 14.454 2.78699 14.1295 3.19536 13.9603C3.50165 13.8335 3.88994 13.8335 4.6665 13.8335H6.33317C7.10974 13.8335 7.49802 13.8335 7.80431 13.9603C8.21269 14.1295 8.53715 14.454 8.7063 14.8623C8.83317 15.1687 8.83317 15.5569 8.83317 16.3335C8.83317 17.1101 8.83317 17.4983 8.7063 17.8047C8.53715 18.213 8.21269 18.5375 7.80431 18.7067C7.49802 18.8335 7.10974 18.8335 6.33317 18.8335H4.6665C3.88994 18.8335 3.50165 18.8335 3.19536 18.7067C2.78699 18.5375 2.46253 18.213 2.29337 17.8047C2.1665 17.4983 2.1665 17.1101 2.1665 16.3335Z" stroke="#009AD6" stroke-width="1.5"/>
<path d="M12.1665 13.8333C12.1665 12.262 12.1665 11.4763 12.6547 10.9882C13.1428 10.5 13.9285 10.5 15.4998 10.5C17.0712 10.5 17.8568 10.5 18.345 10.9882C18.8332 11.4763 18.8332 12.262 18.8332 13.8333V15.5C18.8332 17.0713 18.8332 17.857 18.345 18.3452C17.8568 18.8333 17.0712 18.8333 15.4998 18.8333C13.9285 18.8333 13.1428 18.8333 12.6547 18.3452C12.1665 17.857 12.1665 17.0713 12.1665 15.5V13.8333Z" stroke="#009AD6" stroke-width="1.5"/>
<path d="M12.1665 4.6665C12.1665 3.88994 12.1665 3.50165 12.2933 3.19536C12.4625 2.78699 12.787 2.46253 13.1953 2.29337C13.5017 2.1665 13.8899 2.1665 14.6665 2.1665H16.3332C17.1098 2.1665 17.498 2.1665 17.8043 2.29337C18.2127 2.46253 18.5372 2.78699 18.7063 3.19536C18.8332 3.50165 18.8332 3.88994 18.8332 4.6665C18.8332 5.44307 18.8332 5.83135 18.7063 6.13765C18.5372 6.54602 18.2127 6.87048 17.8043 7.03964C17.498 7.1665 17.1098 7.1665 16.3332 7.1665H14.6665C13.8899 7.1665 13.5017 7.1665 13.1953 7.03964C12.787 6.87048 12.4625 6.54602 12.2933 6.13765C12.1665 5.83135 12.1665 5.44307 12.1665 4.6665Z" stroke="#009AD6" stroke-width="1.5"/>
</svg>
