<svg width="20" height="20" viewBox="0 0 20 20" fill="none" xmlns="http://www.w3.org/2000/svg">
<path fill-rule="evenodd" clip-rule="evenodd" d="M1.25 8.125C1.25 10.8517 2.78086 13.2077 5 14.3192V12.8752C3.50637 11.8845 2.5 10.1432 2.5 8.125C2.5 4.97529 4.95112 2.5 7.88018 2.5C10.3649 2.5 12.5057 4.28128 13.098 6.74447L13.0999 6.7437C13.1836 7.08546 13.2369 7.43979 13.2568 7.80342C13.6462 7.60823 14.0795 7.5 14.5308 7.5C16.1283 7.5 17.5 8.856 17.5 10.625C17.5 11.6941 16.999 12.6123 16.25 13.1715V14.6215C17.7233 13.939 18.75 12.4063 18.75 10.625C18.75 8.20875 16.861 6.25 14.5308 6.25C14.4409 6.25 14.3517 6.25292 14.2631 6.25867C13.4788 3.3686 10.9181 1.25 7.88018 1.25C4.21843 1.25 1.25 4.32804 1.25 8.125ZM11.6994 12.6266C11.8304 12.7023 12.0357 12.6693 12.1407 12.4874C12.1982 12.3878 12.2721 12.1809 12.3256 11.8441C12.3469 11.7098 12.363 11.5682 12.3747 11.4228C12.0096 11.681 11.7331 11.9428 11.5992 12.1747C11.4943 12.3566 11.5683 12.5509 11.6994 12.6266ZM12.3715 9.95108C13.023 9.58609 13.5745 9.37759 13.5745 9.37759C13.5745 9.37759 13.6467 9.96451 13.6495 10.704C13.6526 11.5141 13.5725 12.5073 13.2231 13.1126C12.7838 13.8737 11.8219 14.1409 11.0745 13.7093C10.3272 13.2776 10.0775 12.3107 10.5168 11.5495C10.9001 10.8853 11.6904 10.3327 12.3715 9.95108ZM7.57258 13.2627C7.70363 13.3384 7.90893 13.3053 8.01391 13.1234C8.0714 13.0238 8.14529 12.817 8.19882 12.4801C8.22016 12.3459 8.23625 12.2042 8.24789 12.0588C7.88285 12.3171 7.60628 12.5788 7.47245 12.8107C7.36747 12.9926 7.44152 13.187 7.57258 13.2627ZM8.24472 10.5871C8.89618 10.2222 9.44774 10.0137 9.44774 10.0137C9.44774 10.0137 9.51989 10.6006 9.52271 11.3401C9.5258 12.1502 9.44568 13.1433 9.09634 13.7486C8.65704 14.5098 7.69507 14.7769 6.94774 14.3453C6.20041 13.9137 5.95071 12.9467 6.39001 12.1856C6.77337 11.5213 7.56364 10.9687 8.24472 10.5871ZM13.5496 16.3205C13.4446 16.5024 13.2393 16.5355 13.1082 16.4598C12.9772 16.3841 12.9031 16.1897 13.0081 16.0078C13.1419 15.7759 13.4185 15.5142 13.7836 15.2559C13.7719 15.4013 13.7558 15.5429 13.7345 15.6772C13.681 16.014 13.6071 16.2209 13.5496 16.3205ZM14.9834 13.2107C14.9834 13.2107 14.4318 13.4192 13.7804 13.7842C13.0993 14.1658 12.309 14.7184 11.9257 15.3826C11.4864 16.1438 11.7361 17.1108 12.4834 17.5424C13.2307 17.974 14.1927 17.7069 14.632 16.9457C14.9813 16.3404 15.0615 15.3472 15.0584 14.5371C15.0556 13.7977 14.9834 13.2107 14.9834 13.2107ZM8.90928 17.461C9.04034 17.5366 9.24564 17.5036 9.35062 17.3217C9.40811 17.2221 9.482 17.0152 9.53552 16.6784C9.55686 16.5441 9.57296 16.4025 9.5846 16.2571C9.21956 16.5154 8.94299 16.7771 8.80916 17.009C8.70418 17.1909 8.77823 17.3853 8.90928 17.461ZM9.58143 14.7854C10.2329 14.4204 10.7844 14.2119 10.7844 14.2119C10.7844 14.2119 10.8566 14.7988 10.8594 15.5383C10.8625 16.3484 10.7824 17.3416 10.4331 17.9469C9.99374 18.7081 9.03178 18.9752 8.28445 18.5436C7.53712 18.112 7.28741 17.145 7.72672 16.3838C8.11008 15.7196 8.90035 15.167 9.58143 14.7854Z" fill="url(#paint0_linear_278_6152)"/>
<defs>
<linearGradient id="paint0_linear_278_6152" x1="10" y1="1.25" x2="10" y2="18.75" gradientUnits="userSpaceOnUse">
<stop stop-color="#95B6F6"/>
<stop offset="1" stop-color="#5193DE"/>
</linearGradient>
</defs>
</svg>
