<svg width="12" height="12" viewBox="0 0 12 12" fill="none" xmlns="http://www.w3.org/2000/svg">
<path d="M7.25 4.5C7.25 5.19035 6.69035 5.75 6 5.75C5.30965 5.75 4.75 5.19035 4.75 4.5C4.75 3.80964 5.30965 3.25 6 3.25C6.69035 3.25 7.25 3.80964 7.25 4.5Z" stroke="white" stroke-width="0.5"/>
<path d="M9.1111 8.5C9.80835 9.49425 10.1419 10.0238 9.94325 10.4499C9.9233 10.4927 9.89995 10.5339 9.87345 10.5733C9.5862 11 8.84375 11 7.3589 11H4.64111C3.15625 11 2.41382 11 2.12655 10.5733C2.10002 10.5339 2.07669 10.4927 2.05677 10.4499C1.85809 10.0238 2.19163 9.49425 2.88889 8.5" stroke="white" stroke-width="0.5" stroke-linecap="round" stroke-linejoin="round"/>
<path d="M6.6287 8.7468C6.46005 8.9092 6.23465 9 6.0001 9C5.7655 9 5.5401 8.9092 5.37145 8.7468C3.82715 7.2504 1.75759 5.57875 2.76685 3.15187C3.31255 1.83966 4.62247 1 6.0001 1C7.3777 1 8.6876 1.83967 9.2333 3.15187C10.2413 5.5757 8.1768 7.25555 6.6287 8.7468Z" stroke="white" stroke-width="0.5"/>
</svg>
