<svg width="20" height="21" viewBox="0 0 20 21" fill="none" xmlns="http://www.w3.org/2000/svg">
<path d="M12.0833 8.00033C12.0833 9.15091 11.1506 10.0837 10 10.0837C8.84942 10.0837 7.91667 9.15091 7.91667 8.00033C7.91667 6.84973 8.84942 5.91699 10 5.91699C11.1506 5.91699 12.0833 6.84973 12.0833 8.00033Z" stroke="#6C9700" stroke-width="1.25"/>
<path d="M11.0478 15.0783C10.7668 15.349 10.3911 15.5003 10.0002 15.5003C9.60917 15.5003 9.2335 15.349 8.95242 15.0783C6.37858 12.5843 2.92933 9.79824 4.61143 5.75343C5.52092 3.56643 7.70412 2.16699 10.0002 2.16699C12.2962 2.16699 14.4793 3.56643 15.3888 5.75343C17.0688 9.79316 13.628 12.5929 11.0478 15.0783Z" stroke="#6C9700" stroke-width="1.25"/>
<path d="M15 17.167C15 18.0875 12.7614 18.8337 10 18.8337C7.23857 18.8337 5 18.0875 5 17.167" stroke="#6C9700" stroke-width="1.25" stroke-linecap="round"/>
</svg>
