<svg width="20" height="21" viewBox="0 0 20 21" fill="none" xmlns="http://www.w3.org/2000/svg">
<path d="M5.83333 7.58301L8.28502 9.03251C9.71433 9.87759 10.2857 9.87759 11.715 9.03251L14.1667 7.58301" stroke="#FE8D6B" stroke-width="1.5" stroke-linecap="round" stroke-linejoin="round"/>
<path d="M1.6798 11.73C1.73428 14.2846 1.76152 15.5619 2.70412 16.5081C3.64673 17.4544 4.95861 17.4873 7.58236 17.5532C9.19942 17.5939 10.8006 17.5939 12.4177 17.5532C15.0414 17.4873 16.3533 17.4544 17.2958 16.5081C18.2385 15.5619 18.2658 14.2846 18.3202 11.73C18.3378 10.9086 18.3378 10.092 18.3202 9.27068C18.2658 6.71604 18.2385 5.43873 17.2958 4.49254C16.3533 3.54635 15.0414 3.51339 12.4177 3.44747C10.8006 3.40683 9.19942 3.40683 7.58235 3.44746C4.95861 3.51338 3.64673 3.54633 2.70412 4.49253C1.76152 5.43873 1.73427 6.71603 1.6798 9.2706C1.66228 10.092 1.66228 10.9086 1.6798 11.73Z" stroke="#FE8D6B" stroke-width="1.5" stroke-linejoin="round"/>
</svg>
