<svg width="17" height="16" viewBox="0 0 17 16" fill="none" xmlns="http://www.w3.org/2000/svg">
<path d="M2.5 3.40831C2.5 3.03987 2.5 2.85564 2.52859 2.70216C2.65536 2.02175 3.18377 1.48949 3.85926 1.36181C4.01163 1.33301 4.19453 1.33301 4.56032 1.33301H12.4397C12.8055 1.33301 12.9883 1.33301 13.1407 1.36181C13.8162 1.48949 14.3447 2.02175 14.4714 2.70216C14.5 2.85564 14.5 3.03987 14.5 3.40831C14.5 3.76981 14.5 3.95055 14.479 4.11815C14.3873 4.84995 14.0008 5.51155 13.4103 5.94773C13.275 6.04762 13.1181 6.1354 12.8044 6.31095L11.0901 7.27027C9.82407 7.97874 9.191 8.33301 8.5 8.33301C7.809 8.33301 7.17593 7.97874 5.90991 7.27027L4.19559 6.31095C3.88187 6.1354 3.72501 6.04762 3.58977 5.94773C2.99923 5.51155 2.61276 4.84995 2.52101 4.11815C2.5 3.95055 2.5 3.76981 2.5 3.40831Z" stroke="#EFC977" stroke-width="1.5" stroke-linecap="round"/>
<path d="M5.83325 3.33301V3.99967M8.49992 3.33301V5.33301M11.1666 3.33301V3.99967" stroke="#EFC977" stroke-width="1.5" stroke-linecap="round"/>
<path d="M9.01827 9.10024L9.5462 10.1648C9.6182 10.313 9.8102 10.4552 9.9722 10.4824L10.9291 10.6427C11.541 10.7455 11.685 11.1932 11.2441 11.6347L10.5001 12.3848C10.3741 12.5118 10.3051 12.7568 10.3441 12.9322L10.5571 13.8607C10.7251 14.5956 10.3381 14.88 9.6932 14.4958L8.79633 13.9605C8.63433 13.8638 8.36733 13.8638 8.2024 13.9605L7.30547 14.4958C6.66355 14.88 6.27359 14.5926 6.44157 13.8607L6.65455 12.9322C6.69355 12.7568 6.62455 12.5118 6.49857 12.3848L5.75465 11.6347C5.3167 11.1932 5.45769 10.7455 6.06962 10.6427L7.02651 10.4824C7.18547 10.4552 7.37747 10.313 7.44947 10.1648L7.9774 9.10024C8.2654 8.52258 8.73333 8.52258 9.01827 9.10024Z" stroke="#EFC977" stroke-width="1.5" stroke-linecap="round" stroke-linejoin="round"/>
</svg>
