<svg width="25" height="25" viewBox="0 0 25 25" fill="none" xmlns="http://www.w3.org/2000/svg">
<path d="M5.65837 11.991C5.58489 13.387 5.66936 14.873 4.42213 15.8084C3.84164 16.2438 3.5 16.927 3.5 17.6527C3.5 18.6508 4.2818 19.5 5.3 19.5H19.7C20.7182 19.5 21.5 18.6508 21.5 17.6527C21.5 16.927 21.1584 16.2438 20.5779 15.8084C19.3306 14.873 19.4151 13.387 19.3416 11.991C19.1501 8.35223 16.1438 5.5 12.5 5.5C8.85617 5.5 5.84988 8.35222 5.65837 11.991Z" stroke="#009AD6" stroke-width="1.5" stroke-linecap="round" stroke-linejoin="round"/>
<path d="M11 3.625C11 4.45343 11.6716 5.5 12.5 5.5C13.3284 5.5 14 4.45343 14 3.625C14 2.79657 13.3284 2.5 12.5 2.5C11.6716 2.5 11 2.79657 11 3.625Z" stroke="#009AD6" stroke-width="1.5"/>
<path d="M15.5 19.5C15.5 21.1569 14.1569 22.5 12.5 22.5C10.8431 22.5 9.5 21.1569 9.5 19.5" stroke="#009AD6" stroke-width="1.5" stroke-linecap="round" stroke-linejoin="round"/>
</svg>
