<svg width="25" height="25" viewBox="0 0 25 25" fill="none" xmlns="http://www.w3.org/2000/svg">
<path d="M6.15796 11.5022L4.68759 14.8105C2.83252 18.9844 1.90498 21.0713 2.91731 22.0837C3.92963 23.096 6.01658 22.1685 10.1905 20.3134L13.4988 18.843C16.0162 17.7242 17.2749 17.1647 17.4752 16.086C17.6755 15.0073 16.7015 14.0333 14.7536 12.0854L12.9156 10.2474C10.9676 8.29944 9.99365 7.32546 8.91494 7.52575C7.83623 7.72604 7.27681 8.98475 6.15796 11.5022Z" stroke="#009AD6" stroke-width="1.5" stroke-linecap="round" stroke-linejoin="round"/>
<path d="M7 11L14 18M5 16L9 20" stroke="#009AD6" stroke-width="1.5" stroke-linecap="round" stroke-linejoin="round"/>
<path d="M16.5 8.5L19.5 5.5" stroke="#009AD6" stroke-width="1.5" stroke-linecap="round" stroke-linejoin="round"/>
<path d="M14.6973 2.5C15.0963 3.16667 15.4156 4.9 13.5 6.5" stroke="#009AD6" stroke-width="1.5" stroke-linecap="round" stroke-linejoin="round"/>
<path d="M22.5 10.3027C21.8333 9.90365 20.1 9.58438 18.5 11.5" stroke="#009AD6" stroke-width="1.5" stroke-linecap="round" stroke-linejoin="round"/>
<path d="M18.501 2.5V2.52" stroke="#009AD6" stroke-width="1.5" stroke-linecap="round" stroke-linejoin="round"/>
<path d="M22.501 6.5V6.52" stroke="#009AD6" stroke-width="1.5" stroke-linecap="round" stroke-linejoin="round"/>
<path d="M21.501 13.5V13.52" stroke="#009AD6" stroke-width="1.5" stroke-linecap="round" stroke-linejoin="round"/>
<path d="M11.501 3.5V3.52" stroke="#009AD6" stroke-width="1.5" stroke-linecap="round" stroke-linejoin="round"/>
</svg>
