<svg width="24" height="25" viewBox="0 0 24 25" fill="none" xmlns="http://www.w3.org/2000/svg">
<path d="M2 5H8.75736C9.55301 5 10.3161 5.31607 10.8787 5.87868L14 9" stroke="black" stroke-width="1.5" stroke-linecap="round" stroke-linejoin="round"/>
<path d="M5 14H2" stroke="black" stroke-width="1.5" stroke-linecap="round" stroke-linejoin="round"/>
<path d="M8.5 8L10.5 10C11.0523 10.5523 11.0523 11.4477 10.5 12C9.94772 12.5523 9.05229 12.5523 8.5 12L7 10.5C6.13931 11.3607 4.77671 11.4575 3.80294 10.7272L3.5 10.5" stroke="black" stroke-width="1.5" stroke-linecap="round" stroke-linejoin="round"/>
<path d="M5 11.5V16C5 17.8856 5 18.8284 5.58579 19.4142C6.17157 20 7.11438 20 9 20H18C19.8856 20 20.8284 20 21.4142 19.4142C22 18.8284 22 17.8856 22 16V13C22 11.1144 22 10.1716 21.4142 9.58579C20.8284 9 19.8856 9 18 9H9.5" stroke="black" stroke-width="1.5" stroke-linecap="round" stroke-linejoin="round"/>
<path d="M15.25 14.5C15.25 15.4665 14.4665 16.25 13.5 16.25C12.5335 16.25 11.75 15.4665 11.75 14.5C11.75 13.5335 12.5335 12.75 13.5 12.75C14.4665 12.75 15.25 13.5335 15.25 14.5Z" stroke="black" stroke-width="1.5" stroke-linecap="round" stroke-linejoin="round"/>
</svg>
