<svg width="20" height="21" viewBox="0 0 20 21" fill="none" xmlns="http://www.w3.org/2000/svg">
<path d="M15.8333 6.33317C15.8333 6.48317 15.825 6.62483 15.8083 6.76649C15.7083 7.97483 15.175 9.0665 14.3667 9.8665C13.4667 10.7748 12.2167 11.3332 10.8333 11.3332H8.22501C7.80834 11.3332 7.45835 11.6415 7.40002 12.0498L6.76668 16.4498C6.71668 16.7748 6.48335 17.0415 6.17502 17.1248C6.10002 17.1582 6.02502 17.1665 5.94168 17.1665H4.31667C3.80001 17.1665 3.40835 16.7082 3.49168 16.1998L5.48334 4.25818C5.68334 3.04985 6.72502 2.1665 7.95002 2.1665H11.6667C13.9667 2.1665 15.8333 4.03317 15.8333 6.33317Z" fill="black"/>
<path d="M17.4999 9.66671C17.4999 10.8167 17.0333 11.8584 16.2833 12.6167C15.525 13.3667 14.4833 13.8334 13.3333 13.8334H11.5416C11.1333 13.8334 10.7833 14.125 10.7166 14.5334L10.1166 18.1334C10.05 18.5417 9.69994 18.8334 9.29161 18.8334H6.84995C6.69995 18.8334 6.5666 18.8 6.44994 18.7334C6.2666 18.6334 6.38327 18.3917 6.58327 18.3084C7.33327 18.0667 7.88328 17.425 7.99995 16.625L8.53327 12.9417C8.5666 12.7334 8.74162 12.5834 8.94162 12.5834H10.8333C12.5083 12.5834 14.0833 11.9334 15.2499 10.7584C15.9416 10.075 16.4583 9.23339 16.7583 8.32505C16.8249 8.11672 17.0999 8.07505 17.1916 8.26671C17.3916 8.70005 17.4999 9.16671 17.4999 9.66671Z" fill="black"/>
</svg>
