<svg width="18" height="18" viewBox="0 0 18 18" fill="none" xmlns="http://www.w3.org/2000/svg">
<path fill-rule="evenodd" clip-rule="evenodd" d="M0.249878 7.125C0.249878 9.85172 1.78074 12.2077 3.99988 13.3192V11.8752C2.50625 10.8845 1.49988 9.14321 1.49988 7.125C1.49988 3.97529 3.951 1.5 6.88006 1.5C9.36479 1.5 11.5056 3.28128 12.0979 5.74447L12.0998 5.7437C12.1835 6.08546 12.2368 6.43979 12.2566 6.80342C12.6461 6.60823 13.0794 6.5 13.5307 6.5C15.1282 6.5 16.4999 7.856 16.4999 9.62499C16.4999 10.6941 15.9989 11.6123 15.2499 12.1715V13.6215C16.7232 12.939 17.7499 11.4063 17.7499 9.62499C17.7499 7.20875 15.8609 5.25 13.5307 5.25C13.4408 5.25 13.3515 5.25292 13.263 5.25867C12.4787 2.3686 9.91797 0.25 6.88006 0.25C3.21831 0.25 0.249878 3.32804 0.249878 7.125ZM10.6992 11.6266C10.8303 11.7023 11.0356 11.6693 11.1406 11.4874C11.1981 11.3878 11.2719 11.1809 11.3255 10.8441C11.3468 10.7098 11.3629 10.5682 11.3745 10.4228C11.0095 10.681 10.7329 10.9428 10.5991 11.1747C10.4941 11.3566 10.5682 11.5509 10.6992 11.6266ZM11.3714 8.95108C12.0228 8.58609 12.5744 8.37759 12.5744 8.37759C12.5744 8.37759 12.6465 8.96451 12.6494 9.704C12.6525 10.5141 12.5723 11.5073 12.223 12.1126C11.7837 12.8737 10.8217 13.1409 10.0744 12.7093C9.32706 12.2776 9.07736 11.3107 9.51667 10.5495C9.90002 9.88528 10.6903 9.33266 11.3714 8.95108ZM6.57245 12.2627C6.70351 12.3384 6.90881 12.3053 7.01379 12.1234C7.07128 12.0238 7.14517 11.817 7.19869 11.4801C7.22003 11.3459 7.23613 11.2042 7.24777 11.0588C6.88273 11.3171 6.60616 11.5788 6.47233 11.8107C6.36735 11.9926 6.4414 12.187 6.57245 12.2627ZM7.2446 9.58714C7.89606 9.22215 8.44762 9.01365 8.44762 9.01365C8.44762 9.01365 8.51977 9.60057 8.52259 10.3401C8.52568 11.1502 8.44555 12.1433 8.09622 12.7486C7.65691 13.5098 6.69495 13.7769 5.94762 13.3453C5.20029 12.9137 4.95058 11.9467 5.38989 11.1856C5.77325 10.5213 6.56352 9.96872 7.2446 9.58714ZM12.5494 15.3205C12.4445 15.5024 12.2392 15.5355 12.1081 15.4598C11.9771 15.3841 11.903 15.1897 12.008 15.0078C12.1418 14.7759 12.4184 14.5142 12.7834 14.2559C12.7718 14.4013 12.7557 14.5429 12.7344 14.6772C12.6808 15.014 12.6069 15.2209 12.5494 15.3205ZM13.9833 12.2107C13.9833 12.2107 13.4317 12.4192 12.7803 12.7842C12.0992 13.1658 11.3089 13.7184 10.9256 14.3826C10.4862 15.1438 10.7359 16.1108 11.4833 16.5424C12.2306 16.974 13.1926 16.7069 13.6319 15.9457C13.9812 15.3404 14.0613 14.3472 14.0582 13.5371C14.0554 12.7977 13.9833 12.2107 13.9833 12.2107ZM7.90916 16.461C8.04022 16.5366 8.24552 16.5036 8.35049 16.3217C8.40798 16.2221 8.48188 16.0152 8.5354 15.6784C8.55674 15.5441 8.57284 15.4025 8.58448 15.2571C8.21944 15.5154 7.94287 15.7771 7.80904 16.009C7.70406 16.1909 7.7781 16.3853 7.90916 16.461ZM8.58131 13.7854C9.23277 13.4204 9.78433 13.2119 9.78433 13.2119C9.78433 13.2119 9.85648 13.7988 9.8593 14.5383C9.86238 15.3484 9.78226 16.3416 9.43293 16.9469C8.99362 17.7081 8.03166 17.9752 7.28433 17.5436C6.53699 17.112 6.28729 16.145 6.7266 15.3838C7.10996 14.7196 7.90023 14.167 8.58131 13.7854Z" fill="url(#paint0_linear_1045_2167)"/>
<defs>
<linearGradient id="paint0_linear_1045_2167" x1="8.99988" y1="0.25" x2="8.99988" y2="17.75" gradientUnits="userSpaceOnUse">
<stop stop-color="#95B6F6"/>
<stop offset="1" stop-color="#5193DE"/>
</linearGradient>
</defs>
</svg>
