<svg width="20" height="20" viewBox="0 0 20 20" fill="none" xmlns="http://www.w3.org/2000/svg">
<path d="M15 5.6665C15.6454 5.80032 16.1323 6.02366 16.5237 6.39641C17.5 7.32635 17.5 8.82309 17.5 11.8165C17.5 14.8099 17.5 16.3066 16.5237 17.2366C15.5474 18.1665 13.976 18.1665 10.8333 18.1665H9.16667C6.02397 18.1665 4.45262 18.1665 3.47631 17.2366C2.5 16.3066 2.5 14.8099 2.5 11.8165C2.5 8.82309 2.5 7.32635 3.47631 6.39641C3.86765 6.02366 4.35458 5.80032 5 5.6665" stroke="#141B34" stroke-width="1.5" stroke-linecap="round"/>
<path d="M10.0211 1.66694L10 11.6665M10.0211 1.66694C9.88558 1.66133 9.74925 1.70977 9.62775 1.81227C8.87242 2.44989 7.5 4.10722 7.5 4.10722M10.0211 1.66694C10.1426 1.67198 10.2635 1.72047 10.3723 1.81241C11.1276 2.45015 12.5 4.10722 12.5 4.10722" stroke="#141B34" stroke-width="1.5" stroke-linecap="round" stroke-linejoin="round"/>
</svg>
