<svg width="17" height="17" viewBox="0 0 17 17" fill="none" xmlns="http://www.w3.org/2000/svg">
<path d="M1.8335 8.49999C1.8335 6.04057 1.8335 4.81087 2.37604 3.93917C2.57676 3.61668 2.8261 3.33617 3.11277 3.11036C3.8876 2.5 4.98068 2.5 7.16683 2.5H9.8335C12.0196 2.5 13.1127 2.5 13.8876 3.11036C14.1742 3.33617 14.4236 3.61668 14.6243 3.93917C15.1668 4.81087 15.1668 6.04057 15.1668 8.49999C15.1668 10.9594 15.1668 12.1891 14.6243 13.0608C14.4236 13.3833 14.1742 13.6638 13.8876 13.8897C13.1127 14.5 12.0196 14.5 9.8335 14.5H7.16683C4.98068 14.5 3.8876 14.5 3.11277 13.8897C2.8261 13.6638 2.57676 13.3833 2.37604 13.0608C1.8335 12.1891 1.8335 10.9594 1.8335 8.49999Z" stroke="#FF9A6D"/>
<path d="M1.8335 6.8335H15.1668" stroke="#FF9A6D" stroke-linejoin="round"/>
<path d="M4.5 4.5H5.16667M7.16667 4.5H7.83333" stroke="#FF9A6D" stroke-linecap="round" stroke-linejoin="round"/>
</svg>
