<svg width="16" height="16" viewBox="0 0 16 16" fill="none" xmlns="http://www.w3.org/2000/svg">
<path fill-rule="evenodd" clip-rule="evenodd" d="M6.74681 8.00075L3.55089 9.87L1.01759 8.70714L0.497559 9.8511L2.22639 10.6447L1.27544 11.2009L1.89437 12.2869L2.84516 11.7308L2.65919 13.644L3.89714 13.7598L4.16967 10.9561L7.36709 9.08598V12.8455L5.10463 14.4876L5.83887 15.4992L7.36709 14.3901V15.5H8.61709V14.39L10.1454 15.4992L10.8796 14.4876L8.61709 12.8455V9.09465L11.8216 10.969L12.0942 13.7729L13.3322 13.6572L13.1461 11.7436L14.0971 12.2999L14.7161 11.2139L13.7652 10.6577L15.4938 9.86425L14.9737 8.72029L12.4407 9.88303L9.22253 8.00075L12.4308 6.12427L14.9806 7.29469L15.5006 6.15073L13.7553 5.34959L14.7173 4.7869L14.0984 3.70089L13.1548 4.25281L13.339 2.3578L12.101 2.24206L11.8303 5.0275L8.61709 6.90685V3.16722L10.8941 1.51454L10.1599 0.502912L8.61709 1.62268V0.5H7.36709V1.60154L5.8534 0.502912L5.11916 1.51454L7.36709 3.14607V6.91552L4.17949 5.05113L3.90517 2.22906L2.66722 2.3448L2.85498 4.27645L1.89312 3.71386L1.27419 4.79987L2.2178 5.35178L0.505591 6.13774L1.02562 7.2817L3.5423 6.12647L6.74681 8.00075Z" fill="#32ADE6"/>
</svg>
