<svg width="16" height="16" viewBox="0 0 16 16" fill="none" xmlns="http://www.w3.org/2000/svg">
<path fill-rule="evenodd" clip-rule="evenodd" d="M6.74644 8.00075L3.55053 9.87L1.01722 8.70714L0.497192 9.8511L2.22603 10.6447L1.27507 11.2009L1.894 12.2869L2.8448 11.7308L2.65882 13.644L3.89677 13.7598L4.1693 10.9561L7.36672 9.08598V12.8455L5.10427 14.4876L5.8385 15.4992L7.36672 14.3901V15.5H8.61672V14.39L10.145 15.4992L10.8792 14.4876L8.61672 12.8455V9.09465L11.8213 10.969L12.0938 13.7729L13.3318 13.6572L13.1458 11.7436L14.0968 12.2999L14.7157 11.2139L13.7649 10.6577L15.4934 9.86425L14.9734 8.72029L12.4403 9.88303L9.22216 8.00075L12.4304 6.12427L14.9802 7.29469L15.5002 6.15073L13.7549 5.34959L14.717 4.7869L14.098 3.70089L13.1544 4.25281L13.3386 2.3578L12.1006 2.24206L11.8299 5.0275L8.61672 6.90685V3.16722L10.8938 1.51454L10.1595 0.502912L8.61672 1.62268V0.5H7.36672V1.60154L5.85303 0.502912L5.1188 1.51454L7.36672 3.14607V6.91552L4.17912 5.05113L3.9048 2.22906L2.66685 2.3448L2.85462 4.27645L1.89275 3.71386L1.27382 4.79987L2.21743 5.35178L0.505225 6.13774L1.02526 7.2817L3.54193 6.12647L6.74644 8.00075Z" fill="#32ADE6"/>
</svg>
