<svg width="144" height="143" viewBox="0 0 144 143" fill="none" xmlns="http://www.w3.org/2000/svg">
<g clip-path="url(#clip0_617_4371)">
<rect x="0.75" width="142.5" height="142.5" rx="71.25" fill="#DFF6FF"/>
<g clip-path="url(#clip1_617_4371)">
<path d="M75.3334 119.403L1.60357 142.306C-1.60627 143.296 -4.59891 140.303 -3.60941 137.093L19.2939 63.3633L75.3334 119.403Z" fill="#009AD6"/>
<path d="M77.6011 118.096C82.9733 112.724 74.5689 95.6098 58.8293 79.8703C43.0898 64.1307 25.9753 55.7263 20.6032 61.0985C15.231 66.4707 23.6354 83.5851 39.3749 99.3246C55.1145 115.064 72.2289 123.469 77.6011 118.096Z" fill="#A7E6FF"/>
<path d="M64.7613 122.687L50.498 127.128C47.3365 125.993 44.2232 124.642 41.1581 123.049C34.4971 119.598 28.1016 115.085 22.1404 109.606C21.1751 108.713 20.1132 107.7 18.9788 106.589C16.0586 103.669 12.704 99.9525 9.3252 95.5119L12.2454 86.0513C17.6032 94.1121 23.3954 100.097 27.4499 103.814C38.8412 114.264 51.391 120.611 64.7613 122.687Z" fill="#A7E6FF"/>
<path d="M40.9419 130.069L29.6954 133.569C23.2516 130.166 17.0732 125.749 11.281 120.44C10.3157 119.547 9.25378 118.533 8.11947 117.423C6.79209 116.096 5.36818 114.599 3.896 112.934L6.64729 104.029C10.3157 108.566 13.8393 112.114 16.5906 114.648C24.2411 121.646 32.3743 126.811 40.9419 130.069Z" fill="#A7E6FF"/>
<path d="M20.5716 136.418L10.7007 139.483C7.17714 137.07 3.72596 134.319 0.443713 131.302C-0.111372 130.795 -0.690592 130.264 -1.29395 129.661L1.33668 121.166C2.92953 122.831 4.44998 124.279 5.75322 125.486C10.5076 129.854 15.4551 133.498 20.5716 136.418Z" fill="#CBB2EB"/>
<path d="M39.1064 72.7035L35.6069 69.2041C41.1578 63.6532 44.3194 56.5336 45.0192 48.0143C45.5502 41.5463 44.3918 36.6471 44.3676 36.5988L49.1703 35.4163C49.2186 35.6335 50.5218 40.9912 49.9667 48.2315C49.2186 57.9093 45.4537 66.3562 39.1064 72.7035Z" fill="#E35BAD"/>
<path d="M66.8613 103.956L63.3618 100.457C70.1918 93.6267 79.8696 90.1755 91.3333 90.5134C99.8526 90.7547 106.321 92.975 106.586 93.0716L104.969 97.7295L105.765 95.3885L104.969 97.7295C104.897 97.7053 98.839 95.6539 91.0437 95.4367C80.9315 95.1712 72.7741 98.0432 66.8613 103.956Z" fill="#FE7122"/>
<path d="M49.7729 67.7054C51.5589 64.7369 53.924 63.9646 55.6375 63.3854C57.0856 62.9027 57.9786 62.6131 58.8233 61.2133C59.6679 59.8135 59.5231 58.8964 59.2577 57.376C58.9439 55.59 58.5336 53.1525 60.3196 50.184C62.1055 47.2155 64.4706 46.4432 66.1842 45.864C67.6322 45.3813 68.5252 45.0917 69.3699 43.6919C70.2146 42.2921 70.0698 41.375 69.8043 39.8546C69.4905 38.0686 69.0803 35.6311 70.8662 32.6626L75.0897 35.1967C74.245 36.5965 74.3898 37.5136 74.6553 39.034C74.969 40.8199 75.3793 43.2575 73.5934 46.226C71.8074 49.1945 69.4423 49.9668 67.7288 50.546C66.2807 51.0287 65.3877 51.3183 64.543 52.7181C63.6984 54.1178 63.8432 55.0349 64.1086 56.5554C64.4224 58.3413 64.8327 60.7789 63.0467 63.7474C61.2608 66.7159 58.8957 67.4882 57.1821 68.0674C55.7341 68.5501 54.8411 68.8397 53.9964 70.2395L49.7729 67.7054Z" fill="#FE7122"/>
<path d="M70.1429 80.9556L67.7295 76.6597C70.8428 74.8979 73.3527 75.4047 75.1869 75.7909C76.7798 76.1046 77.721 76.2977 79.2656 75.453C80.7861 74.6083 81.1239 73.6912 81.679 72.1466C82.3065 70.3848 83.1995 67.9956 86.3128 66.2338C89.4261 64.472 91.936 64.9788 93.7702 65.3408C95.3631 65.6546 96.3043 65.8476 97.8489 65.0029C99.3693 64.1582 99.7072 63.217 100.262 61.6966C100.89 59.9348 101.783 57.5455 104.896 55.7837L107.309 60.0796C105.789 60.9243 105.451 61.8655 104.896 63.3859C104.269 65.1477 103.376 67.537 100.262 69.2988C97.149 71.0606 94.6391 70.5538 92.8049 70.1918C91.212 69.878 90.2708 69.685 88.7262 70.5297C87.2057 71.3743 86.8679 72.2914 86.3128 73.836C85.6853 75.5978 84.7923 77.9871 81.679 79.7489C78.5657 81.5107 76.0558 81.0039 74.2216 80.6177C72.6287 80.2798 71.6634 80.0868 70.1429 80.9556Z" fill="#E35BAD"/>
<path d="M101.445 81.2698C102.804 81.2698 103.906 80.1677 103.906 78.8081C103.906 77.4486 102.804 76.3464 101.445 76.3464C100.085 76.3464 98.9829 77.4486 98.9829 78.8081C98.9829 80.1677 100.085 81.2698 101.445 81.2698Z" fill="#CBB2EB"/>
<path d="M90.4417 110.084C91.8012 110.084 92.9034 108.982 92.9034 107.622C92.9034 106.263 91.8012 105.161 90.4417 105.161C89.0821 105.161 87.98 106.263 87.98 107.622C87.98 108.982 89.0821 110.084 90.4417 110.084Z" fill="#FFB992"/>
<path d="M113.15 89.1377C114.51 89.1377 115.612 88.0356 115.612 86.676C115.612 85.3165 114.51 84.2144 113.15 84.2144C111.791 84.2144 110.688 85.3165 110.688 86.676C110.688 88.0356 111.791 89.1377 113.15 89.1377Z" fill="#A684DA"/>
<path d="M93.0471 55.0828C94.4067 55.0828 95.5088 53.9807 95.5088 52.6211C95.5088 51.2616 94.4067 50.1594 93.0471 50.1594C91.6876 50.1594 90.5854 51.2616 90.5854 52.6211C90.5854 53.9807 91.6876 55.0828 93.0471 55.0828Z" fill="#CBB2EB"/>
<path d="M56.7468 36.9099C58.1064 36.9099 59.2085 35.8078 59.2085 34.4483C59.2085 33.0887 58.1064 31.9866 56.7468 31.9866C55.3873 31.9866 54.2852 33.0887 54.2852 34.4483C54.2852 35.8078 55.3873 36.9099 56.7468 36.9099Z" fill="#E35BAD"/>
<path d="M73.8591 58.2219C75.2187 58.2219 76.3208 57.1198 76.3208 55.7603C76.3208 54.4007 75.2187 53.2986 73.8591 53.2986C72.4996 53.2986 71.3975 54.4007 71.3975 55.7603C71.3975 57.1198 72.4996 58.2219 73.8591 58.2219Z" fill="#FE7122"/>
<path d="M55.1555 88.7737C56.5151 88.7737 57.6172 87.6716 57.6172 86.312C57.6172 84.9525 56.5151 83.8503 55.1555 83.8503C53.796 83.8503 52.6938 84.9525 52.6938 86.312C52.6938 87.6716 53.796 88.7737 55.1555 88.7737Z" fill="#A684DA"/>
<path d="M29.3313 48.6148C30.6909 48.6148 31.793 47.5126 31.793 46.1531C31.793 44.7935 30.6909 43.6914 29.3313 43.6914C27.9718 43.6914 26.8696 44.7935 26.8696 46.1531C26.8696 47.5126 27.9718 48.6148 29.3313 48.6148Z" fill="#F7C9E3"/>
</g>
</g>
<defs>
<clipPath id="clip0_617_4371">
<rect x="0.75" width="142.5" height="142.5" rx="71.25" fill="white"/>
</clipPath>
<clipPath id="clip1_617_4371">
<rect width="119.416" height="110.51" fill="white" transform="translate(-3.80469 31.9897)"/>
</clipPath>
</defs>
</svg>
