<svg width="20" height="20" viewBox="0 0 20 20" fill="none" xmlns="http://www.w3.org/2000/svg">
<path fill-rule="evenodd" clip-rule="evenodd" d="M9.375 3.12549V1.25049H10.625V3.12549H9.375ZM12.8963 3.73412L13.8338 2.11032L14.9163 2.73532L13.9788 4.35912L12.8963 3.73412ZM10 14.3755C12.4162 14.3755 14.375 12.4167 14.375 10.0005C14.375 7.58424 12.4162 5.62549 10 5.62549C7.58375 5.62549 5.625 7.58424 5.625 10.0005C5.625 12.4167 7.58375 14.3755 10 14.3755ZM10 15.6255C13.1066 15.6255 15.625 13.1071 15.625 10.0005C15.625 6.89389 13.1066 4.37549 10 4.37549C6.8934 4.37549 4.375 6.89389 4.375 10.0005C4.375 13.1071 6.8934 15.6255 10 15.6255ZM16.875 9.37549H18.75V10.6255H16.875V9.37549ZM17.2652 5.08422L15.6414 6.02172L16.2664 7.10425L17.8902 6.16675L17.2652 5.08422ZM5.08373 2.73532L6.02123 4.35912L7.10377 3.73412L6.16627 2.11032L5.08373 2.73532ZM3.73359 7.10425L2.10979 6.16675L2.73479 5.08422L4.35859 6.02172L3.73359 7.10425ZM9.375 16.8755V18.7505H10.625V16.8755H9.375ZM3.125 9.37549H1.25V10.6255H3.125V9.37549ZM2.10976 13.8342L3.73356 12.8967L4.35856 13.9793L2.73476 14.9168L2.10976 13.8342ZM6.02127 15.642L5.08377 17.2658L6.1663 17.8908L7.1038 16.267L6.02127 15.642ZM13.8337 17.8908L12.8962 16.267L13.9788 15.642L14.9163 17.2658L13.8337 17.8908ZM15.6414 13.9793L17.2652 14.9168L17.8902 13.8342L16.2664 12.8967L15.6414 13.9793Z" fill="url(#paint0_linear_278_5515)"/>
<defs>
<linearGradient id="paint0_linear_278_5515" x1="10" y1="1.25049" x2="10" y2="18.7505" gradientUnits="userSpaceOnUse">
<stop stop-color="#EFC977"/>
<stop offset="1" stop-color="#E07256"/>
</linearGradient>
</defs>
</svg>
