<svg width="20" height="21" viewBox="0 0 20 21" fill="none" xmlns="http://www.w3.org/2000/svg">
<path d="M5.48131 13.4017C4.30234 14.1037 1.21114 15.5371 3.09389 17.3308C4.01359 18.207 5.03791 18.8337 6.32573 18.8337H13.6743C14.9621 18.8337 15.9864 18.207 16.9061 17.3308C18.7888 15.5371 15.6977 14.1037 14.5187 13.4017C11.754 11.7554 8.24599 11.7554 5.48131 13.4017Z" stroke="white" stroke-width="1.25" stroke-linecap="round" stroke-linejoin="round"/>
<path d="M13.75 5.91699C13.75 7.98806 12.0711 9.66699 10 9.66699C7.92893 9.66699 6.25 7.98806 6.25 5.91699C6.25 3.84593 7.92893 2.16699 10 2.16699C12.0711 2.16699 13.75 3.84593 13.75 5.91699Z" stroke="white" stroke-width="1.25"/>
</svg>
