<svg width="20" height="21" viewBox="0 0 20 21" fill="none" xmlns="http://www.w3.org/2000/svg">
<path d="M1.66667 12.1663C1.66667 9.82559 1.66667 8.65518 2.22843 7.81444C2.47163 7.45047 2.78413 7.13797 3.1481 6.89477C3.98884 6.33301 5.15923 6.33301 7.5 6.33301H12.5C14.8408 6.33301 16.0112 6.33301 16.8519 6.89477C17.2158 7.13797 17.5283 7.45047 17.7716 7.81444C18.3333 8.65518 18.3333 9.82559 18.3333 12.1663C18.3333 14.5071 18.3333 15.6775 17.7716 16.5183C17.5283 16.8822 17.2158 17.1947 16.8519 17.4379C16.0112 17.9997 14.8408 17.9997 12.5 17.9997H7.5C5.15923 17.9997 3.98884 17.9997 3.1481 17.4379C2.78413 17.1947 2.47163 16.8822 2.22843 16.5183C1.66667 15.6775 1.66667 14.5071 1.66667 12.1663Z" stroke="white" stroke-width="1.25" stroke-linecap="round" stroke-linejoin="round"/>
<path d="M13.3333 6.33333C13.3333 4.76198 13.3333 3.97631 12.8452 3.48816C12.357 3 11.5713 3 10 3C8.42867 3 7.64298 3 7.15483 3.48816C6.66667 3.97631 6.66667 4.76198 6.66667 6.33333" stroke="white" stroke-width="1.25" stroke-linecap="round" stroke-linejoin="round"/>
<path d="M5 9.66699L5.54331 9.83533C8.40425 10.722 11.5957 10.722 14.4567 9.83533L15 9.66699M10 10.5003V12.167" stroke="white" stroke-width="1.25" stroke-linecap="round" stroke-linejoin="round"/>
</svg>
