<svg width="24" height="24" viewBox="0 0 24 24" fill="none" xmlns="http://www.w3.org/2000/svg">
<g clip-path="url(#clip0_494_1145)">
<path d="M12 22.125C17.5919 22.125 22.125 17.5919 22.125 12C22.125 6.40812 17.5919 1.875 12 1.875C6.40812 1.875 1.875 6.40812 1.875 12C1.875 17.5919 6.40812 22.125 12 22.125Z" fill="black"/>
<path d="M6.4042 6.375L11.0373 12.58L6.375 17.625H7.42437L11.5063 13.2079L14.8042 17.625H18.375L13.4812 11.071L17.8208 6.375H16.7714L13.0124 10.4429L9.975 6.375H6.4042ZM7.94734 7.14916H9.58775L16.8317 16.8508H15.1912L7.94734 7.14916Z" fill="white"/>
</g>
<defs>
<clipPath id="clip0_494_1145">
<rect width="21" height="21" fill="white" transform="translate(1.5 1.5)"/>
</clipPath>
</defs>
</svg>
