<svg width="24" height="24" viewBox="0 0 24 24" fill="none" xmlns="http://www.w3.org/2000/svg">
<path d="M8.36876 12.7253H7.8745C6.27664 12.7253 5.4777 12.7253 5.13715 12.1985C4.79661 11.6718 5.12109 10.9379 5.77004 9.47004L7.72104 5.05725C8.31107 3.72269 8.60609 3.05541 9.17842 2.68151C9.75075 2.30762 10.4771 2.30762 11.93 2.30762H14.1801C15.945 2.30762 16.8274 2.30762 17.1602 2.88415C17.493 3.46068 17.0553 4.23087 16.1796 5.77125L15.0253 7.80194C14.59 8.56771 14.3723 8.9506 14.3754 9.26402C14.3793 9.67134 14.5959 10.0466 14.9458 10.2521C15.215 10.4103 15.6537 10.4103 16.531 10.4103C17.6402 10.4103 18.1948 10.4103 18.4836 10.6023C18.8588 10.8517 19.0552 11.298 18.9864 11.7449C18.9334 12.0889 18.5604 12.5013 17.8143 13.3264L11.8534 19.9178C10.6826 21.2124 10.0972 21.8598 9.70407 21.655C9.31095 21.45 9.49973 20.5961 9.87727 18.8881L10.6169 15.5426C10.9043 14.2421 11.0481 13.5918 10.7024 13.1586C10.3567 12.7253 9.69405 12.7253 8.36876 12.7253Z" fill="#FDB416" stroke="#EFC977" stroke-width="0.5" stroke-linejoin="round"/>
</svg>
