<svg width="16" height="20" viewBox="0 0 16 20" fill="none" xmlns="http://www.w3.org/2000/svg">
<path d="M4.36876 10.7253H3.8745C2.27664 10.7253 1.4777 10.7253 1.13715 10.1985C0.796611 9.67178 1.12109 8.93785 1.77004 7.47004L3.72104 3.05725C4.31107 1.72269 4.60609 1.05541 5.17842 0.681514C5.75075 0.307617 6.47712 0.307617 7.92999 0.307617H10.1801C11.945 0.307617 12.8274 0.307617 13.1602 0.884147C13.493 1.46068 13.0553 2.23087 12.1796 3.77125L11.0253 5.80194C10.59 6.56771 10.3723 6.9506 10.3754 7.26402C10.3793 7.67134 10.5959 8.04659 10.9458 8.25207C11.215 8.41027 11.6537 8.41027 12.531 8.41027C13.6402 8.41027 14.1948 8.41027 14.4836 8.60229C14.8588 8.8517 15.0552 9.29798 14.9864 9.7449C14.9334 10.0889 14.5604 10.5013 13.8143 11.3264L7.85342 17.9178C6.68259 19.2124 6.09718 19.8598 5.70407 19.655C5.31095 19.45 5.49973 18.5961 5.87727 16.8881L6.6169 13.5426C6.90433 12.2421 7.0481 11.5918 6.70241 11.1586C6.35672 10.7253 5.69405 10.7253 4.36876 10.7253Z" fill="white" stroke="white" stroke-width="0.5" stroke-linejoin="round"/>
</svg>
